<?xml version="1.0" standalone="no"?>
<!DOCTYPE svg PUBLIC "-//W3C//DTD SVG 1.1//EN" "http://www.w3.org/Graphics/SVG/1.1/DTD/svg11.dtd">
<svg xmlns="http://www.w3.org/2000/svg" viewBox="0 0 389.69 207.2" width="389.69000244140625" height="207.1999969482422"><defs><style>.cls-1{fill:#8c5524;}.cls-2{fill:#c68541;}.cls-3{fill:#dfac69;}.cls-4{fill:#efc170;}.cls-5{fill:#ffdaab;}.cls-6{fill:#efdfd2;}</style></defs><g id="Layer_2" data-name="Layer 2"><g id="Layer_1-2" data-name="Layer 1"><path class="cls-1" d="M4.71,85.43l35.95-84H54l38.32,84H78.22L67.29,60H28.15L17.87,85.43Zm27-34.49H63.46L53.69,27.67q-4.47-10.59-6.64-17.41a98.74,98.74,0,0,1-5,16Z"/><path class="cls-1" d="M146,52.48V42.63l39.66-.06V73.74a72.35,72.35,0,0,1-18.84,9.83,61.79,61.79,0,0,1-19.93,3.29,58.21,58.21,0,0,1-25.06-5.3,37.19,37.19,0,0,1-17-15.33,44.24,44.24,0,0,1-5.75-22.4,47.51,47.51,0,0,1,5.72-22.89A35.88,35.88,0,0,1,121.26,5.16Q132,0,146,0a53.94,53.94,0,0,1,18.36,3,30.62,30.62,0,0,1,12.86,8.22,35,35,0,0,1,7.09,13.75l-11.17,2.75a29.87,29.87,0,0,0-5.24-10.08,21.57,21.57,0,0,0-8.94-5.87A36.11,36.11,0,0,0,146,9.51a41.82,41.82,0,0,0-14.69,2.32,27.71,27.71,0,0,0-10,6.1,28.66,28.66,0,0,0-5.91,8.31,40,40,0,0,0-3.58,16.9q0,11.24,4.31,18.8a26.44,26.44,0,0,0,12.55,11.23,42.6,42.6,0,0,0,17.5,3.67,45.79,45.79,0,0,0,15.71-2.78c5.11-1.86,9-3.83,11.62-5.94V52.48Z"/><path class="cls-1" d="M206.07,85.43v-84h12.39v84Z"/><path class="cls-1" d="M239.79,85.43v-84h12.39V75.52h46.1v9.91Z"/><path class="cls-1" d="M313.29,85.43v-84H381v9.91H325.68V37.07h51.79v9.86H325.68V75.52h57.48v9.91Z"/><path class="cls-2" d="M102.25,128.92l16.68,4.79a28.56,28.56,0,0,1-5.3,11.12,22.77,22.77,0,0,1-9,6.73A35.22,35.22,0,0,1,91,153.83q-10.05,0-16.41-2.76a25.58,25.58,0,0,1-11-9.74q-4.62-7-4.62-17.85Q59,109,67.14,101.2t23-7.79q11.64,0,18.29,4.47t9.9,13.71l-16.81,3.55a13.5,13.5,0,0,0-1.84-3.91A10.85,10.85,0,0,0,95.78,108a11.84,11.84,0,0,0-5.17-1.12,11.36,11.36,0,0,0-9.92,4.94q-2.61,3.66-2.6,11.51,0,9.7,3.11,13.31t8.74,3.6q5.46,0,8.25-2.91A17.51,17.51,0,0,0,102.25,128.92Z"/><path class="cls-2" d="M126.12,123.66q0-14.31,8.41-22.27t23.4-8q15.38,0,23.7,7.83T190,123.18q0,10.24-3.64,16.8a25.28,25.28,0,0,1-10.5,10.21q-6.87,3.65-17.12,3.64-10.42,0-17.25-3.15a25.31,25.31,0,0,1-11.07-10Q126.13,133.91,126.12,123.66Zm19,.08q0,8.85,3.46,12.72a12.06,12.06,0,0,0,9.44,3.86q6.13,0,9.5-3.78c2.23-2.53,3.36-7.06,3.36-13.59,0-5.5-1.18-9.52-3.51-12.06a12.32,12.32,0,0,0-9.52-3.81,11.82,11.82,0,0,0-9.24,3.87Q145.15,114.82,145.16,123.74Z"/><path class="cls-2" d="M200.55,94.41h19v44h29.71v14.39H200.55Z"/><path class="cls-2" d="M254.42,123.66q0-14.31,8.41-22.27t23.4-8q15.39,0,23.7,7.83t8.32,21.94q0,10.24-3.63,16.8a25.31,25.31,0,0,1-10.51,10.21q-6.87,3.65-17.12,3.64-10.42,0-17.25-3.15a25.42,25.42,0,0,1-11.07-10Q254.43,133.91,254.42,123.66Zm19,.08q0,8.85,3.47,12.72a12,12,0,0,0,9.43,3.86q6.13,0,9.5-3.78T299.22,123q0-8.25-3.51-12.06a12.3,12.3,0,0,0-9.52-3.81A11.84,11.84,0,0,0,277,111Q273.46,114.82,273.46,123.74Z"/><path class="cls-2" d="M329.1,152.84V94.41h31.73q8.82,0,13.49,1.44a14.28,14.28,0,0,1,7.51,5.32,15.49,15.49,0,0,1,2.86,9.46,15.67,15.67,0,0,1-2.18,8.39,16.69,16.69,0,0,1-6,5.72,23.9,23.9,0,0,1-6.69,2.31,19.62,19.62,0,0,1,4.95,2.15,18.41,18.41,0,0,1,3.05,3.08,23.23,23.23,0,0,1,2.67,3.63l9.21,16.93H368.18L358,135a13.81,13.81,0,0,0-3.44-4.5,8.35,8.35,0,0,0-4.67-1.36h-1.68v23.72Zm19.12-34.76h8a30.13,30.13,0,0,0,5.05-.79,5.07,5.07,0,0,0,3.09-1.84,5.7,5.7,0,0,0-.7-7.73c-1.26-1-3.62-1.51-7.1-1.51h-8.36Z"/><path class="cls-1" d="M3.55,104.74V97.57H9.79v7.17Zm0,43.63v-36.8H9.79v36.8Z"/><path class="cls-1" d="M19.28,148.37v-36.8H24.9v5.23a13.22,13.22,0,0,1,11.71-6.06,15.5,15.5,0,0,1,6.12,1.19,9.69,9.69,0,0,1,4.17,3.14,12.08,12.08,0,0,1,1.94,4.61,35.69,35.69,0,0,1,.35,6.06v22.63H43V126a16.7,16.7,0,0,0-.73-5.71,6,6,0,0,0-2.58-3,8.19,8.19,0,0,0-4.35-1.13,10.15,10.15,0,0,0-6.88,2.53q-2.89,2.53-2.89,9.6v20.1Z"/><rect class="cls-1" y="168.21" width="58.99" height="39"/><rect class="cls-3" x="131.76" y="168.21" width="58.99" height="39"/><rect class="cls-2" x="65.83" y="168.21" width="58.99" height="39"/><rect class="cls-4" x="197.7" y="168.21" width="58.99" height="39"/><rect class="cls-5" x="264.75" y="168.21" width="58.99" height="39"/><rect class="cls-6" x="330.68" y="168.21" width="58.99" height="39"/></g></g></svg>